<svg width="33" height="32" viewBox="0 0 33 32" fill="none" xmlns="http://www.w3.org/2000/svg">
<path d="M0.333496 16C0.333496 7.16344 7.49694 0 16.3335 0C25.1701 0 32.3335 7.16344 32.3335 16C32.3335 24.8366 25.1701 32 16.3335 32C7.49694 32 0.333496 24.8366 0.333496 16Z" fill="#EEEEEE"/>
<path d="M16.3327 22.679C15.4122 22.679 14.5941 22.5213 13.8782 22.206C13.1665 21.8906 12.604 21.4517 12.1907 20.8892C11.7773 20.3267 11.5578 19.6768 11.5323 18.9396H13.9357C13.957 19.2933 14.0742 19.6023 14.2872 19.8665C14.5003 20.1264 14.7837 20.3288 15.1374 20.4737C15.4911 20.6186 15.8874 20.6911 16.3263 20.6911C16.7951 20.6911 17.2105 20.6101 17.5728 20.4482C17.935 20.282 18.2184 20.0518 18.4229 19.7578C18.6274 19.4638 18.7276 19.125 18.7233 18.7415C18.7276 18.3452 18.6253 17.9957 18.4165 17.6932C18.2077 17.3906 17.9051 17.1541 17.5088 16.9837C17.1168 16.8132 16.6438 16.728 16.0898 16.728H14.9328V14.8999H16.0898C16.5458 14.8999 16.9442 14.821 17.2851 14.6634C17.6303 14.5057 17.9009 14.2841 18.0969 13.9986C18.2929 13.7088 18.3888 13.3743 18.3845 12.995C18.3888 12.6243 18.3057 12.3026 18.1353 12.0298C17.9691 11.7528 17.7326 11.5376 17.4257 11.3842C17.1232 11.2308 16.7674 11.1541 16.3583 11.1541C15.9577 11.1541 15.587 11.2266 15.246 11.3714C14.9051 11.5163 14.6303 11.723 14.4215 11.9915C14.2127 12.2557 14.1019 12.571 14.0891 12.9375H11.8071C11.8242 12.2045 12.0351 11.5611 12.4399 11.0071C12.849 10.4489 13.3945 10.0142 14.0763 9.70312C14.7581 9.38778 15.523 9.23011 16.371 9.23011C17.2446 9.23011 18.0032 9.39418 18.6466 9.7223C19.2943 10.0462 19.7951 10.483 20.1487 11.0327C20.5024 11.5824 20.6793 12.1896 20.6793 12.8544C20.6835 13.5916 20.4662 14.2095 20.0273 14.7081C19.5926 15.2067 19.0216 15.5327 18.3142 15.6861V15.7884C19.2347 15.9162 19.9399 16.2571 20.43 16.8111C20.9243 17.3608 21.1693 18.0447 21.1651 18.8629C21.1651 19.5959 20.9563 20.2521 20.5387 20.8317C20.1253 21.407 19.5543 21.8587 18.8256 22.1868C18.1012 22.5149 17.2702 22.679 16.3327 22.679Z" fill="#222831"/>
</svg>
