<svg width="33" height="32" viewBox="0 0 33 32" fill="none" xmlns="http://www.w3.org/2000/svg">
<path d="M0.666504 16C0.666504 7.16344 7.82995 0 16.6665 0C25.5031 0 32.6665 7.16344 32.6665 16C32.6665 24.8366 25.5031 32 16.6665 32C7.82995 32 0.666504 24.8366 0.666504 16Z" fill="#EEEEEE"/>
<path d="M12.24 22.5V20.7869L16.7848 16.3317C17.2194 15.8928 17.5816 15.5028 17.8714 15.1619C18.1612 14.821 18.3785 14.4908 18.5234 14.1712C18.6683 13.8516 18.7407 13.5107 18.7407 13.1484C18.7407 12.7351 18.647 12.3814 18.4595 12.0874C18.272 11.7891 18.0142 11.5589 17.686 11.397C17.3579 11.2351 16.985 11.1541 16.5674 11.1541C16.137 11.1541 15.7599 11.2436 15.436 11.4226C15.1122 11.5973 14.8608 11.8466 14.6818 12.1705C14.5071 12.4943 14.4197 12.88 14.4197 13.3274H12.1633C12.1633 12.4964 12.3529 11.7741 12.7322 11.1605C13.1115 10.5469 13.6335 10.0717 14.2983 9.73509C14.9673 9.39844 15.7343 9.23011 16.5994 9.23011C17.4772 9.23011 18.2485 9.39418 18.9133 9.7223C19.5781 10.0504 20.0937 10.5 20.4602 11.071C20.8309 11.642 21.0163 12.294 21.0163 13.027C21.0163 13.517 20.9225 13.9986 20.735 14.4716C20.5475 14.9446 20.2173 15.4687 19.7443 16.044C19.2755 16.6193 18.6171 17.3161 17.7691 18.1342L15.5127 20.429V20.5185H21.2144V22.5H12.24Z" fill="#222831"/>
</svg>
